<svg xmlns="http://www.w3.org/2000/svg" width="1000" height="1000" xmlns:v="https://vecta.io/nano"><path fill="#0a84ff" fill-rule="evenodd" d="M283.188 613.379h400.334c105.81 0 184.522-80.325 184.522-179.683 0-102.906-83.873-178.07-193.232-178.07-40.324-79.68-115.165-130.972-208.393-130.972-121.294 0-221.297 95.164-231.942 214.845-58.389 17.097-102.906 67.744-102.906 135.81 0 76.454 55.486 138.069 151.617 138.069zm-.645-51.614c-66.131 0-99.358-37.098-99.358-84.841 0-38.711 22.581-73.551 77.422-88.067 17.742-4.839 24.194-13.226 25.807-31.291 7.42-105.487 86.454-181.296 180.005-181.296 72.583 0 129.681 40.001 164.521 111.294 7.42 15.807 17.097 21.291 36.13 21.291 95.487 0 149.359 57.421 149.359 126.133 0 70.325-56.131 126.778-129.681 126.778zm42.259 167.747l21.614-38.066c5.807-9.678 2.903-21.291-6.774-27.098-9.678-5.484-20.968-1.936-26.775 7.42l-21.936 39.033c-5.161 9.033-2.903 20.323 7.097 26.13 9.678 5.484 21.291 2.258 26.775-7.42zm140.649 49.356l50.324-87.099c5.484-10 2.581-21.291-6.774-26.775-10-5.807-21.291-2.581-26.775 7.42l-50.647 87.745c-5.484 9.355-2.581 20.646 7.42 26.13 9.355 5.484 21.291 2.258 26.452-7.42zm197.425-48.066l21.614-38.066c5.807-9.678 2.903-21.291-6.774-27.098-9.678-5.484-20.968-1.936-26.775 7.42l-21.936 39.033c-5.161 9.033-2.903 20.323 7.097 26.13 9.678 5.484 21.291 1.936 26.775-7.42zm-395.173 94.842c19.033 0 34.84-16.13 34.84-35.485 0-18.71-15.807-34.517-34.84-34.517-19.355 0-35.162 15.807-35.162 34.517 0 19.355 15.807 35.485 35.162 35.485zm338.075 1.29c19.033 0 34.84-16.13 34.84-35.485 0-18.71-15.807-34.84-34.84-34.84-19.355 0-35.162 16.13-35.162 34.84 0 19.355 15.807 35.485 35.162 35.485zM408.353 875c19.033 0 35.162-16.13 35.162-35.485 0-18.71-15.807-34.517-35.162-34.517-19.033 0-34.84 15.807-34.84 34.517 0 19.355 15.807 35.485 34.84 35.485z"/></svg>