<svg xmlns="http://www.w3.org/2000/svg" width="1000" height="1000" xmlns:v="https://vecta.io/nano"><path fill="#0a84ff" fill-rule="evenodd" d="M280.87 619.388h404.974c107.036 0 186.66-81.256 186.66-181.765 0-104.099-84.845-180.133-195.471-180.133C636.242 176.886 560.534 125 466.225 125c-122.7 0-223.861 96.267-234.63 217.335-59.065 17.295-104.099 68.529-104.099 137.384 0 77.34 56.129 139.669 153.374 139.669zm-.653-52.213c-66.897 0-100.509-37.528-100.509-85.824 0-39.159 22.843-74.403 78.319-89.088 17.948-4.895 24.475-13.379 26.106-31.654 7.506-106.709 87.456-183.397 182.091-183.397 73.424 0 131.184 40.465 166.428 112.583 7.506 15.99 17.295 21.538 36.549 21.538 96.593 0 151.09 58.087 151.09 127.595 0 71.14-56.781 128.247-131.184 128.247zm-57.76 297.612l95.941-166.101c5.874-10.443 2.611-21.538-7.179-27.085-9.79-5.874-20.885-2.937-26.759 7.506L188.193 845.86c-5.221 9.137-2.611 20.559 7.179 26.433 9.79 5.548 21.538 2.284 27.085-7.506zm130.205 0l95.614-166.101c5.874-10.443 2.937-21.538-6.853-27.085-10.116-5.874-21.211-2.937-27.085 7.506L318.398 845.86c-5.221 9.137-2.937 20.559 7.179 26.433 9.79 5.548 21.538 2.284 27.085-7.506zm129.879 0l95.614-166.101c5.874-10.443 2.937-21.538-6.853-27.085-10.116-5.874-21.211-2.937-27.085 7.506L448.277 845.86c-5.221 9.137-2.937 20.559 7.179 26.433 9.79 5.548 21.538 2.284 27.085-7.506zm128.9.326l96.593-167.08c5.548-9.79 2.611-21.538-7.179-26.433-9.464-5.221-20.885-2.937-26.433 7.179l-95.941 166.428c-5.874 9.79-2.937 21.211 6.527 27.085 9.137 5.548 21.211 2.284 26.433-7.179z"/></svg>