<svg xmlns="http://www.w3.org/2000/svg" width="1000" height="1000" xmlns:v="https://vecta.io/nano"><path fill="#0a84ff" fill-rule="evenodd" d="M499.859 875c16.32 0 25.964-11.499 25.964-27.448v-80.49l63.798 36.35c13.724 7.418 27.819 6.306 35.608-7.418 6.677-11.499 2.596-25.964-11.498-33.754l-87.908-50.074v-47.107l-7.418-132.418 111.647 72.329 41.172 23.368-.742 101.261c-.371 15.95 10.015 27.448 22.997 27.448 15.95 0 24.11-11.869 24.11-27.448l.371-74.184 70.104 40.801c14.466 8.531 28.19 4.822 35.979-8.531 7.789-14.095 3.709-28.561-10.015-36.35l-70.104-40.43 63.798-37.463c13.353-8.16 19.288-20.771 11.499-34.125-7.418-11.869-21.513-15.208-35.237-7.047l-87.166 51.187-41.172-23.368L535.839 500l120.178-60.089 40.43-23.739 87.166 51.187c13.724 8.16 28.932 4.822 35.979-6.677 7.418-13.353 1.484-26.335-11.869-34.496l-63.798-37.092 70.104-40.43c14.095-8.16 18.175-22.255 10.386-36.35-7.789-13.353-22.255-17.062-35.979-8.531l-70.475 40.059-.742-73.813c0-15.95-7.789-27.077-23.368-27.077-13.724 0-23.739 11.128-23.368 27.077l.371 100.89-40.801 23.739-111.647 72.7 7.418-132.789v-47.107l87.908-49.703c14.095-8.16 18.175-22.255 11.498-34.125-7.789-13.353-21.884-14.837-35.608-7.047l-63.798 36.35v-80.861c0-15.95-9.644-27.077-25.964-27.077-15.579 0-25.593 11.128-25.593 27.077v80.861l-64.911-36.35c-13.724-7.789-27.077-6.306-35.237 7.047-6.677 11.869-2.226 25.964 11.869 33.754l88.279 50.074v47.107l7.047 132.789-111.647-72.7-41.172-23.739.742-100.89c.371-15.95-9.644-27.077-22.997-27.077-15.95 0-24.11 11.499-24.11 27.077l-.371 73.813-70.475-40.059c-13.353-8.16-28.561-4.822-35.979 8.531-8.16 14.095-3.709 28.561 10.386 36.35l69.733 40.43-63.427 37.092c-13.353 8.16-19.288 20.03-11.869 34.496 6.677 11.869 21.884 14.837 35.979 6.677l86.795-50.816 40.801 23.368L463.509 500l-119.807 60.089-40.801 23.739-87.166-51.558c-13.724-8.16-28.561-4.822-34.866 6.677-7.789 14.466-2.226 26.335 11.128 34.496l63.798 37.463-70.104 40.43c-13.724 7.789-18.175 22.626-10.386 35.979 8.16 14.095 22.626 17.062 35.979 8.902l70.475-40.059.371 73.442c0 15.579 8.16 27.448 23.739 27.448 13.353 0 23.739-11.499 23.368-27.448l-.371-101.261 40.801-22.997 111.647-72.7-7.047 132.418v47.107l-88.279 50.074c-14.095 7.789-18.546 22.255-11.869 33.754 8.16 13.724 21.513 14.837 35.237 7.418l64.911-36.721v80.861c0 15.95 10.015 27.448 25.593 27.448z"/></svg>