<?xml version="1.0" encoding="UTF-8"?>
<!-- Generated by Pixelmator Pro 3.3.11 -->
<svg width="1000" height="1000" viewBox="0 0 1000 1000" xmlns="http://www.w3.org/2000/svg">
    <path id="editData" fill="#ffffff" fill-rule="evenodd" stroke="none" d="M 310.548523 793 C 241.708153 793 206.626648 758.909783 206.626648 690.400391 L 206.626648 309.130859 C 206.626648 240.95243 241.708153 206.533203 310.548523 206.533203 L 666.335632 206.533203 L 613.050476 259.818359 L 311.542664 259.818359 C 278.446315 259.818359 259.911804 277.689213 259.911804 312.109375 L 259.911804 687.753906 C 259.911804 722.174068 278.446315 739.714844 311.542664 739.714844 L 698.439148 739.714844 C 721.275642 739.714844 739.808289 722.174068 739.808289 687.753906 L 739.808289 389.886719 L 793.093445 336.601562 L 793.093445 690.400391 C 793.093445 758.578808 758.674684 793 699.101257 793 L 310.548523 793 Z M 428.374695 579.078125 C 423.053792 579.081849 418.484091 572.780525 420.75946 567.945312 L 450.54657 505.722656 L 759.335632 196.933594 L 804.677429 241.615234 L 495.558289 550.404297 L 431.019226 578.535156 C 430.134931 578.907498 429.245388 579.077516 428.374695 579.078125 Z M 829.169617 217.455078 L 783.82782 171.78125 L 807.987976 147.951172 C 818.909779 137.360423 835.126475 136.036998 845.386414 146.296875 L 852.999695 154.240234 C 864.252491 165.162037 864.252491 181.04823 852.999695 192.962891 L 829.169617 217.455078 Z"/>
</svg>
