<?xml version="1.0" encoding="UTF-8"?>
<!-- Generated by Pixelmator Pro 3.2.1 -->
<svg width="1000" height="1000" viewBox="0 0 1000 1000" xmlns="http://www.w3.org/2000/svg" xmlns:xlink="http://www.w3.org/1999/xlink">
    <path id="fileNew" fill="#fff" stroke="none" d="M 297.590607 505.702209 C 307.093475 504.633179 315.626251 504.098267 323.188965 504.098267 C 327.517303 504.098267 331.820679 504.266388 336.099152 504.601807 C 340.377594 504.938049 344.781525 505.329773 349.309357 505.777008 L 349.309357 226.699219 C 349.309357 210.82251 353.577362 198.522827 362.112549 189.801025 C 370.647736 181.079224 383.289246 176.717896 400.036285 176.717896 L 542.952332 176.717896 L 542.952332 363.600159 C 542.952332 383.851868 548.046448 399.010254 558.235413 409.07373 C 568.423584 419.137268 583.519226 424.169434 603.521606 424.169434 L 786.710144 424.169434 L 786.710144 712.873901 C 786.710144 728.899414 782.442139 741.248962 773.906921 749.920898 C 765.371765 758.592834 752.842041 762.929199 736.318604 762.929199 L 523.89917 762.929199 C 521.684753 772.033936 518.805054 780.94635 515.260193 789.665771 C 511.715332 798.385132 507.666138 806.71283 503.114197 814.647949 L 738.818604 814.647949 C 772.059326 814.647949 797.027039 806.17627 813.721802 789.232178 C 830.416504 772.288086 838.763489 747.109619 838.763489 713.69519 L 838.763489 421.559998 C 838.763489 400.886047 836.848267 384.746338 833.017029 373.140808 C 829.185852 361.535339 820.938599 349.176941 808.275391 336.066528 L 630.794617 155.488098 C 618.529541 143.049316 606.537964 134.858398 594.820679 130.914551 C 583.1026 126.971497 568.162964 125 550.001831 125 L 397.200073 125 C 364.009247 125 339.110718 133.459595 322.502838 150.37793 C 305.894958 167.296326 297.590607 192.462708 297.590607 225.877136 Z M 591.312805 357.405701 L 591.312805 186.681702 L 776.746399 375.472717 L 609.454651 375.472717 C 597.360107 375.472717 591.312805 369.450378 591.312805 357.405701 Z M 323.338593 875 C 352.872711 875 380.054871 867.585327 404.886658 852.755859 C 429.718445 837.927246 449.617004 818.152588 464.583954 793.433411 C 479.549286 768.71344 487.032379 741.474182 487.032379 711.715637 C 487.032379 681.733459 479.617676 654.382385 464.788269 629.663208 C 449.959656 604.943237 430.184967 585.224854 405.46579 570.508057 C 380.745819 555.790466 353.369812 548.432068 323.338593 548.432068 C 293.679749 548.432068 266.478302 555.790466 241.733398 570.508057 C 216.988495 585.224854 197.189667 604.943237 182.335327 629.663208 C 167.480988 654.382385 160.053406 681.733459 160.053406 711.715637 C 160.053406 741.697815 167.480988 769.048889 182.335327 793.768066 C 197.189667 818.488831 216.988495 838.207214 241.733398 852.924011 C 266.478302 867.641602 293.679749 875 323.338593 875 Z M 323.412567 814.240967 C 317.292114 814.240967 312.453003 812.394104 308.895264 808.699585 C 305.337524 805.005127 303.559052 800.234375 303.559052 794.388184 L 303.559052 731.569153 L 240.740799 731.569153 C 234.720078 731.569153 229.906708 729.734375 226.299103 726.064819 C 222.691483 722.395264 220.887283 717.612488 220.887283 711.715637 C 220.887283 705.81958 222.691483 701.036743 226.299103 697.366455 C 229.906708 693.696899 234.720078 691.862122 240.740799 691.862122 L 303.559052 691.862122 L 303.559052 629.119446 C 303.559052 623.322388 305.337524 618.564453 308.895264 614.844238 C 312.453003 611.124878 317.292114 609.265137 323.412567 609.265137 C 329.259552 609.265137 333.949066 611.124878 337.481873 614.844238 C 341.014648 618.564453 342.781067 623.322388 342.781067 629.119446 L 342.781067 691.862122 L 405.67334 691.862122 C 411.694061 691.862122 416.496155 693.696899 420.078827 697.366455 C 423.661499 701.036743 425.45285 705.81958 425.45285 711.715637 C 425.45285 717.612488 423.661499 722.395264 420.078827 726.064819 C 416.496155 729.734375 411.694061 731.569153 405.67334 731.569153 L 342.781067 731.569153 L 342.781067 794.388184 C 342.781067 800.234375 341.014648 805.005127 337.481873 808.699585 C 333.949066 812.394104 329.259552 814.240967 323.412567 814.240967 Z"/>
</svg>
