<?xml version="1.0" encoding="UTF-8"?>
<!-- Generated by Pixelmator Pro 3.2.2 -->
<svg width="1000" height="1000" viewBox="0 0 1000 1000" xmlns="http://www.w3.org/2000/svg" xmlns:xlink="http://www.w3.org/1999/xlink">
    <path id="openFile" fill="#fff" stroke="none" d="M 197.244003 705.766479 L 802.093872 705.766479 C 824.775635 705.766479 842.543396 699.286499 855.397095 686.327393 C 868.246033 673.368286 874.670898 655.657166 874.670898 633.194092 L 874.670898 255.948364 C 874.670898 233.266541 868.246033 215.50116 855.397095 202.650635 C 842.543396 189.800903 824.775635 183.376038 802.093872 183.376038 L 197.244003 183.376038 C 174.56221 183.376038 156.796036 189.800903 143.946304 202.650635 C 131.095779 215.50116 124.670898 233.266541 124.670898 255.948364 L 124.670898 633.194092 C 124.670898 655.657166 131.095779 673.368286 143.946304 686.327393 C 156.796036 699.286499 174.56221 705.766479 197.244003 705.766479 Z M 188.99437 566.994751 C 179.841385 566.994751 175.264893 562.552002 175.264893 553.666565 L 175.264893 256.75177 C 175.264893 241.612183 182.883453 234.042419 198.119797 234.042419 L 801.223572 234.042419 C 816.458313 234.042419 824.075317 241.612183 824.075317 256.75177 L 824.075317 553.666565 C 824.075317 562.552002 819.524048 566.994751 810.42218 566.994751 Z M 400.326569 780.691528 L 599.343323 780.691528 L 599.343323 701.750244 L 400.326569 701.750244 Z M 398.608032 817.268066 L 601.061096 817.268066 C 607.899902 817.268066 613.83136 814.822388 618.856384 809.931152 C 623.881409 805.039185 626.393921 799.040771 626.393921 791.934448 C 626.393921 784.92572 623.881409 778.909241 618.856384 773.883423 C 613.83136 768.858398 607.899902 766.345947 601.061096 766.345947 L 398.608032 766.345947 C 391.550507 766.345947 385.509644 768.858398 380.484619 773.883423 C 375.458832 778.909241 372.94632 784.92572 372.94632 791.934448 C 372.94632 799.040771 375.458832 805.039185 380.484619 809.931152 C 385.509644 814.822388 391.550507 817.268066 398.608032 817.268066 Z"/>
</svg>
