<?xml version="1.0" encoding="UTF-8"?>
<!-- Generated by Pixelmator Pro 3.2.2 -->
<svg width="1000" height="1000" viewBox="0 0 1000 1000" xmlns="http://www.w3.org/2000/svg" xmlns:xlink="http://www.w3.org/1999/xlink">
    <path id="fileSaveAs" fill="#fff" fill-rule="evenodd" stroke="none" d="M 427.795807 554.781128 C 433.804962 554.781128 438.669525 552.778076 444.392517 547.055115 L 541.111328 453.770081 C 545.403564 449.477844 547.978943 444.899414 547.978943 438.604126 C 547.978943 427.158142 538.822144 418.573608 527.089966 418.573608 C 521.366943 418.573608 515.643982 420.862793 511.637848 425.441223 L 468.143005 471.797546 L 448.970917 491.828094 L 450.687836 449.191711 L 450.687836 147.303101 C 450.687836 135.28479 440.100281 125.269531 427.795807 125.269531 C 415.491333 125.269531 405.189941 135.28479 405.189941 147.303101 L 405.189941 449.191711 L 406.90683 492.114258 L 387.448608 471.797546 L 344.239899 425.441223 C 340.233795 420.862793 333.938507 418.573608 328.501648 418.573608 C 316.483337 418.573608 307.898834 427.158142 307.898834 438.604126 C 307.898834 444.899414 310.188019 449.477844 314.480286 453.770081 L 411.199097 547.055115 C 417.208252 552.778076 422.072815 554.781128 427.795807 554.781128 Z M 263.831665 742.781921 L 341.092255 742.781921 L 341.092255 786.562927 C 341.092255 845.509888 371.138031 875.269531 430.943451 875.269531 L 734.835083 875.269531 C 794.640503 875.269531 824.686279 845.796021 824.686279 786.562927 L 824.686279 501.271057 C 824.686279 442.037964 794.640503 412.564453 734.835083 412.564453 L 681.897278 412.564453 L 681.897278 368.783447 C 681.897278 309.836487 651.851501 280.076843 592.046082 280.076843 L 512.210144 280.076843 L 512.210144 326.147034 L 591.187622 326.147034 C 619.516541 326.147034 635.827087 341.313049 635.827087 371.072632 L 635.827087 651.786133 C 635.827087 681.545776 619.516541 696.711731 591.187622 696.711731 L 264.403961 696.711731 C 235.78894 696.711731 220.050674 681.545776 220.050674 651.786133 L 220.050674 371.072632 C 220.050674 341.313049 235.78894 326.147034 264.403961 326.147034 L 343.667603 326.147034 L 343.667603 280.076843 L 263.831665 280.076843 C 204.02626 280.076843 173.980469 309.550354 173.980469 368.783447 L 173.980469 654.075317 C 173.980469 713.308472 204.02626 742.781921 263.831665 742.781921 Z M 431.80191 829.199341 C 403.473022 829.199341 387.162476 814.033325 387.162476 784.273743 L 387.162476 742.781921 L 592.046082 742.781921 C 651.851501 742.781921 681.897278 713.022339 681.897278 654.075317 L 681.897278 458.634644 L 734.262817 458.634644 C 762.877808 458.634644 778.616089 473.800598 778.616089 503.560272 L 778.616089 784.273743 C 778.616089 814.033325 762.877808 829.199341 734.262817 829.199341 Z"/>
</svg>
