<?xml version="1.0" encoding="UTF-8"?>
<!-- Generated by Pixelmator Pro 3.2.2 -->
<svg width="1000" height="1000" viewBox="0 0 1000 1000" xmlns="http://www.w3.org/2000/svg" xmlns:xlink="http://www.w3.org/1999/xlink">
    <path id="saveFile" fill="#fff" stroke="none" d="M 300.568634 875 L 699.114868 875 C 735.446045 875 762.701416 865.957153 780.880066 847.872314 C 799.058716 829.787537 808.148499 802.848389 808.148499 767.054932 L 808.148499 420.824097 C 808.148499 385.03064 799.058716 358.105347 780.880066 340.046631 C 762.701416 321.987854 735.446045 312.958923 699.114868 312.958923 L 602.408813 312.958923 L 602.408813 369.099426 L 698.228699 369.099426 C 715.429138 369.099426 728.726257 373.648193 738.120117 382.745789 C 747.513062 391.843384 752.209534 405.46283 752.209534 423.604065 L 752.209534 764.354858 C 752.209534 782.442261 747.513062 796.03479 738.120117 805.133179 C 728.726257 814.230774 715.429138 818.779541 698.228699 818.779541 L 301.454742 818.779541 C 284.092743 818.779541 270.74176 814.230774 261.402649 805.133179 C 252.062698 796.03479 247.393158 782.442261 247.393158 764.354858 L 247.393158 423.604065 C 247.393158 405.46283 252.062698 391.843384 261.402649 382.745789 C 270.74176 373.648193 284.092743 369.099426 301.454742 369.099426 L 397.354584 369.099426 L 397.354584 312.958923 L 300.568634 312.958923 C 264.425903 312.958923 237.218323 321.960938 218.944992 339.96582 C 200.671661 357.970703 191.534988 384.922913 191.534988 420.824097 L 191.534988 767.054932 C 191.534988 802.956116 200.671661 829.92218 218.944992 847.953125 C 237.218323 865.98407 264.425903 875 300.568634 875 Z M 499.619781 646.526855 C 503.220734 646.526855 506.639282 645.821411 509.877136 644.410522 C 513.11499 643.000549 516.412781 640.615845 519.770508 637.257202 L 637.077271 523.940674 C 642.773682 518.485718 645.621399 512.400146 645.621399 505.683807 C 645.621399 498.724243 643.162842 492.894043 638.246582 488.192352 C 633.330322 483.490662 627.271606 481.139832 620.070557 481.139832 C 612.332581 481.139832 606.072327 484.014526 601.289856 489.764801 L 548.55835 545.759399 L 525.332214 570.235596 L 527.589233 518.357178 L 527.589233 152.24408 C 527.589233 144.693726 524.815308 138.265869 519.266602 132.959534 C 513.71875 127.653198 507.170105 125 499.619781 125 C 492.365692 125 485.964722 127.653198 480.41687 132.959534 C 474.868134 138.265869 472.094208 144.693726 472.094208 152.24408 L 472.094208 518.357178 L 474.351227 570.315552 L 450.963562 545.759399 L 398.23288 489.764801 C 393.261902 484.014526 386.906982 481.139832 379.169006 481.139832 C 371.673401 481.139832 365.587799 483.490662 360.913025 488.192352 C 356.238281 492.894043 353.900452 498.724243 353.900452 505.683807 C 353.900452 512.400146 356.627472 518.485718 362.081512 523.940674 L 479.549866 637.257202 C 483.096954 640.615845 486.488586 643.000549 489.72641 644.410522 C 492.963379 645.821411 496.261169 646.526855 499.619781 646.526855 Z"/>
</svg>
