<?xml version="1.0" encoding="UTF-8"?>
<!-- Generated by Pixelmator Pro 3.2.1 -->
<svg width="1000" height="1000" viewBox="0 0 1000 1000" xmlns="http://www.w3.org/2000/svg" xmlns:xlink="http://www.w3.org/1999/xlink">
    <path id="viewData" fill="#fff" fill-rule="evenodd" stroke="none" d="M 224.874847 793.474976 L 775.140747 793.474976 C 841.936035 793.474976 875.015625 760.71344 875.015625 695.19043 L 875.015625 306.505493 C 875.015625 240.982544 841.936035 207.902954 775.140747 207.902954 L 224.874847 207.902954 C 158.397644 207.902954 125 240.982544 125 306.505493 L 125 695.19043 C 125 760.71344 158.397644 793.474976 224.874847 793.474976 Z M 225.511002 742.265259 C 193.70372 742.265259 176.209717 725.407349 176.209717 692.327759 L 176.209717 309.368164 C 176.209717 276.288574 193.70372 259.112671 225.511002 259.112671 L 774.504639 259.112671 C 805.993835 259.112671 823.805908 276.288574 823.805908 309.368164 L 823.805908 692.327759 C 823.805908 725.407349 805.993835 742.265259 774.504639 742.265259 Z M 287.217102 368.211609 L 556.306702 368.211609 C 567.757324 368.211609 576.027222 359.623657 576.027222 348.49115 C 576.027222 337.676636 567.757324 329.088684 556.306702 329.088684 L 287.217102 329.088684 C 275.76651 329.088684 267.496613 337.676636 267.496613 348.49115 C 267.496613 359.623657 275.76651 368.211609 287.217102 368.211609 Z M 258.90863 575.595093 L 741.425049 575.595093 C 767.825073 575.595093 783.410645 559.055298 783.410645 532.973328 L 783.410645 468.086487 C 783.410645 442.004517 767.825073 425.464722 741.425049 425.464722 L 258.90863 425.464722 C 232.508591 425.464722 216.923035 442.004517 216.923035 468.086487 L 216.923035 532.973328 C 216.923035 559.055298 232.508591 575.595093 258.90863 575.595093 Z M 287.535217 520.250427 C 276.084595 520.250427 267.496613 511.662476 267.496613 500.529907 C 267.496613 489.715424 276.084595 481.127502 287.535217 481.127502 L 444.027008 481.127502 C 455.477631 481.127502 463.747528 489.715424 463.747528 500.529907 C 463.747528 511.662476 455.477631 520.250427 444.027008 520.250427 Z M 287.217102 671.97113 L 556.306702 671.97113 C 567.757324 671.97113 576.027222 663.701294 576.027222 652.88678 C 576.027222 641.754272 567.757324 632.848206 556.306702 632.848206 L 287.217102 632.848206 C 275.76651 632.848206 267.496613 641.754272 267.496613 652.88678 C 267.496613 663.701294 275.76651 671.97113 287.217102 671.97113 Z"/>
</svg>
